<svg xmlns="http://www.w3.org/2000/svg" width="25" height="25" viewBox="0 0 25 25"><g><g><g><path fill="#fff" d="M22.666 17.195a5.477 5.477 0 0 1-5.471 5.471h-9.38a5.477 5.477 0 0 1-5.471-5.471v-9.38a5.477 5.477 0 0 1 5.471-5.471h9.38a5.477 5.477 0 0 1 5.471 5.471zM17.187 0H7.813A7.813 7.813 0 0 0 0 7.813v9.375A7.813 7.813 0 0 0 7.813 25h9.375A7.813 7.813 0 0 0 25 17.187V7.813A7.813 7.813 0 0 0 17.187 0z"/></g><g><path fill="#fff" d="M12.505 16.416a3.917 3.917 0 0 1-3.911-3.911 3.916 3.916 0 0 1 3.911-3.911 3.916 3.916 0 0 1 3.911 3.911 3.917 3.917 0 0 1-3.911 3.911zM12.5 6.25a6.25 6.25 0 1 0 0 12.5 6.25 6.25 0 0 0 0-12.5z"/></g><g><path fill="#fff" d="M19.223 6.616a.833.833 0 1 0 0-1.666.833.833 0 0 0 0 1.666z"/></g></g></g></svg>