<svg xmlns="http://www.w3.org/2000/svg" width="86" height="13" viewBox="0 0 86 13"><defs><clipPath id="5m1ca"><path fill="#fff" d="M79 10.5l-4.114 2.163.785-4.581-3.328-3.245 4.6-.669L79 0l2.057 4.168 4.6.669-3.328 3.245.786 4.581z"/></clipPath></defs><g><g><path fill="#7dc242" d="M7 10.5l-4.114 2.163.785-4.581L.343 4.837l4.6-.669L7 0l2.057 4.168 4.6.669-3.328 3.245.785 4.581z"/></g><g><path fill="#7dc242" d="M43 10.5l-4.114 2.163.785-4.581-3.328-3.245 4.6-.669L43 0l2.057 4.168 4.6.669-3.328 3.245.785 4.581z"/></g><g><path fill="#7dc242" d="M25 10.5l-4.114 2.163.785-4.581-3.328-3.245 4.6-.669L25 0l2.057 4.168 4.6.669-3.328 3.245.785 4.581z"/></g><g><path fill="#7dc242" d="M61 10.5l-4.114 2.163.785-4.581-3.328-3.245 4.6-.669L61 0l2.057 4.168 4.6.669-3.328 3.245.786 4.581z"/></g><g><path fill="none" stroke="#7dc242" stroke-miterlimit="50" stroke-width="2" d="M79 10.5v0l-4.114 2.163v0l.785-4.581v0l-3.328-3.245v0l4.6-.669v0L79 0v0l2.057 4.168v0l4.6.669v0L82.33 8.082v0l.786 4.581v0z" clip-path="url(&quot;#5m1ca&quot;)"/></g></g></svg>